<svg width="26" height="26" viewBox="0 0 26 26" fill="none" xmlns="http://www.w3.org/2000/svg">
<g clip-path="url(#clip0_80_22)">
<path d="M17.875 11.375H14.625V8.125C14.625 7.69402 14.4538 7.2807 14.149 6.97595C13.8443 6.6712 13.431 6.5 13 6.5C12.569 6.5 12.1557 6.6712 11.851 6.97595C11.5462 7.2807 11.375 7.69402 11.375 8.125V11.375H8.125C7.69402 11.375 7.2807 11.5462 6.97595 11.851C6.6712 12.1557 6.5 12.569 6.5 13C6.5 13.431 6.6712 13.8443 6.97595 14.149C7.2807 14.4538 7.69402 14.625 8.125 14.625H11.375V17.875C11.375 18.306 11.5462 18.7193 11.851 19.024C12.1557 19.3288 12.569 19.5 13 19.5C13.431 19.5 13.8443 19.3288 14.149 19.024C14.4538 18.7193 14.625 18.306 14.625 17.875V14.625H17.875C18.306 14.625 18.7193 14.4538 19.024 14.149C19.3288 13.8443 19.5 13.431 19.5 13C19.5 12.569 19.3288 12.1557 19.024 11.851C18.7193 11.5462 18.306 11.375 17.875 11.375Z" fill="#C2D1D0"/>
<path d="M13 0C10.4288 0 7.91543 0.762437 5.77759 2.1909C3.63975 3.61935 1.97351 5.64968 0.989572 8.02512C0.00563272 10.4006 -0.251811 13.0144 0.249797 15.5362C0.751405 18.0579 1.98954 20.3743 3.80762 22.1924C5.6257 24.0105 7.94208 25.2486 10.4638 25.7502C12.9856 26.2518 15.5995 25.9944 17.9749 25.0104C20.3503 24.0265 22.3807 22.3603 23.8091 20.2224C25.2376 18.0846 26 15.5712 26 13C25.9963 9.55331 24.6255 6.24884 22.1883 3.81167C19.7512 1.37449 16.4467 0.0036706 13 0ZM13 22.75C11.0716 22.75 9.18658 22.1782 7.5832 21.1068C5.97982 20.0355 4.73013 18.5127 3.99218 16.7312C3.25423 14.9496 3.06114 12.9892 3.43735 11.0979C3.81356 9.20656 4.74215 7.46927 6.10571 6.10571C7.46928 4.74215 9.20656 3.81355 11.0979 3.43734C12.9892 3.06114 14.9496 3.25422 16.7312 3.99217C18.5128 4.73013 20.0355 5.97981 21.1068 7.58319C22.1782 9.18657 22.75 11.0716 22.75 13C22.7472 15.585 21.7191 18.0633 19.8912 19.8912C18.0633 21.719 15.585 22.7472 13 22.75Z" fill="#C2D1D0"/>
</g>
<defs>
<clipPath id="clip0_80_22">
<rect width="26" height="26" fill="white"/>
</clipPath>
</defs>
</svg>
