<svg width="29" height="29" viewBox="0 0 29 29" fill="none" xmlns="http://www.w3.org/2000/svg">
<g clip-path="url(#clip0_80_12)">
<path d="M26.5834 8.45834H15.5501C15.0124 6.37457 13.1262 4.83334 10.8751 4.83334C8.62396 4.83334 6.73775 6.37457 6.20004 8.45834H2.41675V10.875H6.20004C6.73714 12.9588 8.62335 14.5 10.8751 14.5C13.1268 14.5 15.0124 12.9588 15.5501 10.875H26.5834V8.45834ZM10.8751 12.0833C9.54229 12.0833 8.45841 10.9995 8.45841 9.66668C8.45841 8.33388 9.54229 7.25001 10.8751 7.25001C12.2079 7.25001 13.2917 8.33388 13.2917 9.66668C13.2917 10.9995 12.2079 12.0833 10.8751 12.0833Z" fill="white"/>
<path d="M26.5834 18.125H22.8001C22.263 16.0412 20.3768 14.5 18.1251 14.5C15.8734 14.5 13.9877 16.0412 13.45 18.125H2.41675V20.5417H13.45C13.9871 22.6254 15.8734 24.1667 18.1251 24.1667C20.3768 24.1667 22.2624 22.6254 22.8001 20.5417H26.5834V18.125ZM18.1251 21.75C16.7923 21.75 15.7084 20.6661 15.7084 19.3333C15.7084 18.0005 16.7923 16.9167 18.1251 16.9167C19.4579 16.9167 20.5417 18.0005 20.5417 19.3333C20.5417 20.6661 19.4579 21.75 18.1251 21.75Z" fill="white"/>
</g>
<defs>
<clipPath id="clip0_80_12">
<rect width="29" height="29" fill="white"/>
</clipPath>
</defs>
</svg>
