<svg width="22" height="22" viewBox="0 0 22 22" fill="none" xmlns="http://www.w3.org/2000/svg">
<path d="M15.5891 2.12125H6.67219C5.78112 2.12306 4.92707 2.47784 4.29698 3.10792C3.66692 3.73801 3.31213 4.59205 3.31031 5.48312V17.9681C3.30935 18.3444 3.41335 18.7135 3.61061 19.0339C3.80789 19.3543 4.09063 19.6133 4.42705 19.7819C4.76345 19.9505 5.1402 20.0219 5.51495 19.9881C5.88971 19.9543 6.24759 19.8166 6.54844 19.5906L10.7422 16.4487C10.855 16.365 10.9918 16.3198 11.1323 16.3198C11.2729 16.3198 11.4096 16.365 11.5225 16.4487L15.7128 19.5872C16.0133 19.8133 16.371 19.9511 16.7455 19.9852C17.1201 20.0192 17.4967 19.9482 17.833 19.78C18.1694 19.6118 18.4523 19.3532 18.6497 19.0331C18.8472 18.713 18.9515 18.3442 18.9509 17.9681V5.48312C18.9491 4.59205 18.5943 3.73801 17.9643 3.10792C17.3342 2.47784 16.4801 2.12306 15.5891 2.12125Z" fill="#F8E042"/>
</svg>
